<mxfile host="app.diagrams.net" modified="2021-11-03T14:55:06.754Z" agent="5.0 (Windows)" etag="_SiRk_Y6sx5UQRFni__d" version="15.6.8" type="github">
  <diagram id="C5RBs43oDa-KdzZeNtuy" name="Page-1">
    <mxGraphModel dx="2214" dy="2520" grid="1" gridSize="10" guides="1" tooltips="1" connect="1" arrows="1" fold="1" page="1" pageScale="1" pageWidth="827" pageHeight="1169" math="0" shadow="0">
      <root>
        <mxCell id="WIyWlLk6GJQsqaUBKTNV-0" />
        <mxCell id="WIyWlLk6GJQsqaUBKTNV-1" parent="WIyWlLk6GJQsqaUBKTNV-0" />
        <mxCell id="KGgtrtZ2W4Gr-rw0HMmI-87" value="" style="rounded=0;whiteSpace=wrap;html=1;fillColor=#60a917;fontColor=#ffffff;strokeColor=#2D7600;" vertex="1" parent="WIyWlLk6GJQsqaUBKTNV-1">
          <mxGeometry x="180" width="1020" height="650" as="geometry" />
        </mxCell>
        <mxCell id="KGgtrtZ2W4Gr-rw0HMmI-86" value="" style="rounded=0;whiteSpace=wrap;html=1;fillColor=#0F97FF;fontColor=#ffffff;strokeColor=#2D7600;" vertex="1" parent="WIyWlLk6GJQsqaUBKTNV-1">
          <mxGeometry x="1220" y="210" width="1230" height="1130" as="geometry" />
        </mxCell>
        <mxCell id="KGgtrtZ2W4Gr-rw0HMmI-48" style="edgeStyle=orthogonalEdgeStyle;rounded=0;orthogonalLoop=1;jettySize=auto;html=1;" edge="1" parent="WIyWlLk6GJQsqaUBKTNV-1" source="KGgtrtZ2W4Gr-rw0HMmI-47">
          <mxGeometry relative="1" as="geometry">
            <mxPoint x="2040" y="665" as="targetPoint" />
          </mxGeometry>
        </mxCell>
        <mxCell id="KGgtrtZ2W4Gr-rw0HMmI-47" value="" style="rounded=0;whiteSpace=wrap;html=1;" vertex="1" parent="WIyWlLk6GJQsqaUBKTNV-1">
          <mxGeometry x="1505" y="400" width="440" height="530" as="geometry" />
        </mxCell>
        <mxCell id="KGgtrtZ2W4Gr-rw0HMmI-29" style="edgeStyle=orthogonalEdgeStyle;rounded=0;orthogonalLoop=1;jettySize=auto;html=1;entryX=-0.005;entryY=0.481;entryDx=0;entryDy=0;entryPerimeter=0;" edge="1" parent="WIyWlLk6GJQsqaUBKTNV-1" source="KGgtrtZ2W4Gr-rw0HMmI-28" target="KGgtrtZ2W4Gr-rw0HMmI-47">
          <mxGeometry relative="1" as="geometry">
            <mxPoint x="1490" y="590" as="targetPoint" />
          </mxGeometry>
        </mxCell>
        <mxCell id="KGgtrtZ2W4Gr-rw0HMmI-70" style="edgeStyle=orthogonalEdgeStyle;rounded=0;orthogonalLoop=1;jettySize=auto;html=1;" edge="1" parent="WIyWlLk6GJQsqaUBKTNV-1" source="KGgtrtZ2W4Gr-rw0HMmI-28">
          <mxGeometry relative="1" as="geometry">
            <mxPoint x="1340" y="1020" as="targetPoint" />
          </mxGeometry>
        </mxCell>
        <mxCell id="KGgtrtZ2W4Gr-rw0HMmI-28" value="" style="rounded=0;whiteSpace=wrap;html=1;" vertex="1" parent="WIyWlLk6GJQsqaUBKTNV-1">
          <mxGeometry x="1250" y="332.5" width="180" height="440" as="geometry" />
        </mxCell>
        <mxCell id="KGgtrtZ2W4Gr-rw0HMmI-6" style="edgeStyle=orthogonalEdgeStyle;rounded=0;orthogonalLoop=1;jettySize=auto;html=1;entryX=-0.002;entryY=0.163;entryDx=0;entryDy=0;entryPerimeter=0;" edge="1" parent="WIyWlLk6GJQsqaUBKTNV-1" source="KGgtrtZ2W4Gr-rw0HMmI-0" target="KGgtrtZ2W4Gr-rw0HMmI-9">
          <mxGeometry relative="1" as="geometry">
            <mxPoint x="510" y="110" as="targetPoint" />
          </mxGeometry>
        </mxCell>
        <mxCell id="KGgtrtZ2W4Gr-rw0HMmI-7" style="edgeStyle=orthogonalEdgeStyle;rounded=0;orthogonalLoop=1;jettySize=auto;html=1;exitX=0.5;exitY=1;exitDx=0;exitDy=0;" edge="1" parent="WIyWlLk6GJQsqaUBKTNV-1" source="KGgtrtZ2W4Gr-rw0HMmI-0">
          <mxGeometry relative="1" as="geometry">
            <mxPoint x="330" y="230" as="targetPoint" />
          </mxGeometry>
        </mxCell>
        <mxCell id="KGgtrtZ2W4Gr-rw0HMmI-0" value="Take in UserName" style="rounded=0;whiteSpace=wrap;html=1;" vertex="1" parent="WIyWlLk6GJQsqaUBKTNV-1">
          <mxGeometry x="270" y="80" width="120" height="60" as="geometry" />
        </mxCell>
        <mxCell id="KGgtrtZ2W4Gr-rw0HMmI-2" style="edgeStyle=orthogonalEdgeStyle;rounded=0;orthogonalLoop=1;jettySize=auto;html=1;exitX=0.5;exitY=0.5;exitDx=0;exitDy=0;exitPerimeter=0;" edge="1" parent="WIyWlLk6GJQsqaUBKTNV-1" source="KGgtrtZ2W4Gr-rw0HMmI-1" target="KGgtrtZ2W4Gr-rw0HMmI-0">
          <mxGeometry relative="1" as="geometry">
            <mxPoint x="40" y="110" as="targetPoint" />
          </mxGeometry>
        </mxCell>
        <mxCell id="KGgtrtZ2W4Gr-rw0HMmI-1" value="Actor" style="shape=umlActor;verticalLabelPosition=bottom;verticalAlign=top;html=1;outlineConnect=0;" vertex="1" parent="WIyWlLk6GJQsqaUBKTNV-1">
          <mxGeometry x="40" y="80" width="30" height="60" as="geometry" />
        </mxCell>
        <mxCell id="KGgtrtZ2W4Gr-rw0HMmI-10" style="edgeStyle=orthogonalEdgeStyle;rounded=0;orthogonalLoop=1;jettySize=auto;html=1;entryX=0.5;entryY=1;entryDx=0;entryDy=0;" edge="1" parent="WIyWlLk6GJQsqaUBKTNV-1" source="KGgtrtZ2W4Gr-rw0HMmI-8" target="KGgtrtZ2W4Gr-rw0HMmI-9">
          <mxGeometry relative="1" as="geometry" />
        </mxCell>
        <mxCell id="KGgtrtZ2W4Gr-rw0HMmI-8" value="&lt;div&gt;New: &lt;br&gt;&lt;/div&gt;&lt;div&gt;-Provide us with the devices owned&lt;/div&gt;&lt;div&gt;-Provide us with Name&lt;/div&gt;&lt;div&gt;-Provide us with email&lt;/div&gt;&lt;div&gt;(Use regex to test for A:[A-z,1-9]{AA*@gmail.com}&lt;/div&gt;&lt;div&gt;&lt;br&gt;&lt;/div&gt;&lt;div&gt;&lt;br&gt;&lt;/div&gt;" style="rounded=0;whiteSpace=wrap;html=1;" vertex="1" parent="WIyWlLk6GJQsqaUBKTNV-1">
          <mxGeometry x="270" y="230" width="130" height="160" as="geometry" />
        </mxCell>
        <mxCell id="KGgtrtZ2W4Gr-rw0HMmI-13" style="edgeStyle=orthogonalEdgeStyle;rounded=0;orthogonalLoop=1;jettySize=auto;html=1;entryX=0;entryY=0.5;entryDx=0;entryDy=0;" edge="1" parent="WIyWlLk6GJQsqaUBKTNV-1" source="KGgtrtZ2W4Gr-rw0HMmI-9" target="KGgtrtZ2W4Gr-rw0HMmI-12">
          <mxGeometry relative="1" as="geometry" />
        </mxCell>
        <mxCell id="KGgtrtZ2W4Gr-rw0HMmI-15" style="edgeStyle=orthogonalEdgeStyle;rounded=0;orthogonalLoop=1;jettySize=auto;html=1;entryX=0.5;entryY=0;entryDx=0;entryDy=0;" edge="1" parent="WIyWlLk6GJQsqaUBKTNV-1" source="KGgtrtZ2W4Gr-rw0HMmI-9" target="KGgtrtZ2W4Gr-rw0HMmI-16">
          <mxGeometry relative="1" as="geometry">
            <mxPoint x="860" y="300" as="targetPoint" />
            <Array as="points">
              <mxPoint x="970" y="230" />
            </Array>
          </mxGeometry>
        </mxCell>
        <mxCell id="KGgtrtZ2W4Gr-rw0HMmI-19" style="edgeStyle=orthogonalEdgeStyle;rounded=0;orthogonalLoop=1;jettySize=auto;html=1;exitX=0.797;exitY=1.002;exitDx=0;exitDy=0;entryX=0.5;entryY=0;entryDx=0;entryDy=0;exitPerimeter=0;" edge="1" parent="WIyWlLk6GJQsqaUBKTNV-1" source="KGgtrtZ2W4Gr-rw0HMmI-9" target="KGgtrtZ2W4Gr-rw0HMmI-18">
          <mxGeometry relative="1" as="geometry">
            <Array as="points">
              <mxPoint x="661" y="350" />
              <mxPoint x="720" y="350" />
            </Array>
          </mxGeometry>
        </mxCell>
        <mxCell id="KGgtrtZ2W4Gr-rw0HMmI-20" style="edgeStyle=orthogonalEdgeStyle;rounded=0;orthogonalLoop=1;jettySize=auto;html=1;entryX=0.5;entryY=0;entryDx=0;entryDy=0;" edge="1" parent="WIyWlLk6GJQsqaUBKTNV-1" source="KGgtrtZ2W4Gr-rw0HMmI-9" target="KGgtrtZ2W4Gr-rw0HMmI-17">
          <mxGeometry relative="1" as="geometry">
            <Array as="points">
              <mxPoint x="870" y="260" />
            </Array>
          </mxGeometry>
        </mxCell>
        <mxCell id="KGgtrtZ2W4Gr-rw0HMmI-55" style="edgeStyle=orthogonalEdgeStyle;rounded=0;orthogonalLoop=1;jettySize=auto;html=1;" edge="1" parent="WIyWlLk6GJQsqaUBKTNV-1" source="KGgtrtZ2W4Gr-rw0HMmI-9" target="KGgtrtZ2W4Gr-rw0HMmI-56">
          <mxGeometry relative="1" as="geometry">
            <mxPoint x="615" y="560.5714285714286" as="targetPoint" />
            <Array as="points">
              <mxPoint x="630" y="320" />
              <mxPoint x="630" y="320" />
            </Array>
          </mxGeometry>
        </mxCell>
        <mxCell id="KGgtrtZ2W4Gr-rw0HMmI-9" value="&lt;div&gt;Functionality:&lt;/div&gt;&lt;div&gt;- Update Device Tab&lt;/div&gt;&lt;div&gt;- Enter Game Name&lt;/div&gt;&lt;div&gt;- Pull History&lt;/div&gt;&lt;div&gt;- Pull Friend&#39;s History&lt;/div&gt;&lt;div&gt;-End Program&lt;br&gt;&lt;/div&gt;" style="rounded=0;whiteSpace=wrap;html=1;" vertex="1" parent="WIyWlLk6GJQsqaUBKTNV-1">
          <mxGeometry x="520" y="80" width="190" height="190" as="geometry" />
        </mxCell>
        <mxCell id="KGgtrtZ2W4Gr-rw0HMmI-14" style="edgeStyle=orthogonalEdgeStyle;rounded=0;orthogonalLoop=1;jettySize=auto;html=1;entryX=0.5;entryY=0;entryDx=0;entryDy=0;" edge="1" parent="WIyWlLk6GJQsqaUBKTNV-1" source="KGgtrtZ2W4Gr-rw0HMmI-12" target="KGgtrtZ2W4Gr-rw0HMmI-9">
          <mxGeometry relative="1" as="geometry">
            <Array as="points">
              <mxPoint x="890" y="30" />
              <mxPoint x="615" y="30" />
            </Array>
          </mxGeometry>
        </mxCell>
        <mxCell id="KGgtrtZ2W4Gr-rw0HMmI-12" value="&lt;div&gt;Update Device:&lt;/div&gt;&lt;div&gt;Allow user to mark if they have a new console or remove the console&lt;br&gt;&lt;/div&gt;" style="shape=process;whiteSpace=wrap;html=1;backgroundOutline=1;" vertex="1" parent="WIyWlLk6GJQsqaUBKTNV-1">
          <mxGeometry x="830" y="80" width="170" height="110" as="geometry" />
        </mxCell>
        <mxCell id="KGgtrtZ2W4Gr-rw0HMmI-21" style="edgeStyle=orthogonalEdgeStyle;rounded=0;orthogonalLoop=1;jettySize=auto;html=1;" edge="1" parent="WIyWlLk6GJQsqaUBKTNV-1" source="KGgtrtZ2W4Gr-rw0HMmI-16">
          <mxGeometry relative="1" as="geometry">
            <mxPoint x="1110" y="290" as="targetPoint" />
          </mxGeometry>
        </mxCell>
        <mxCell id="KGgtrtZ2W4Gr-rw0HMmI-16" value="Enter Game Name" style="shape=process;whiteSpace=wrap;html=1;backgroundOutline=1;" vertex="1" parent="WIyWlLk6GJQsqaUBKTNV-1">
          <mxGeometry x="910" y="260" width="120" height="60" as="geometry" />
        </mxCell>
        <mxCell id="KGgtrtZ2W4Gr-rw0HMmI-59" style="edgeStyle=orthogonalEdgeStyle;rounded=0;orthogonalLoop=1;jettySize=auto;html=1;" edge="1" parent="WIyWlLk6GJQsqaUBKTNV-1" source="KGgtrtZ2W4Gr-rw0HMmI-17" target="KGgtrtZ2W4Gr-rw0HMmI-57">
          <mxGeometry relative="1" as="geometry" />
        </mxCell>
        <mxCell id="KGgtrtZ2W4Gr-rw0HMmI-17" value="Pull Search History" style="shape=process;whiteSpace=wrap;html=1;backgroundOutline=1;" vertex="1" parent="WIyWlLk6GJQsqaUBKTNV-1">
          <mxGeometry x="810" y="370" width="120" height="60" as="geometry" />
        </mxCell>
        <mxCell id="KGgtrtZ2W4Gr-rw0HMmI-58" style="edgeStyle=orthogonalEdgeStyle;rounded=0;orthogonalLoop=1;jettySize=auto;html=1;" edge="1" parent="WIyWlLk6GJQsqaUBKTNV-1" source="KGgtrtZ2W4Gr-rw0HMmI-18" target="KGgtrtZ2W4Gr-rw0HMmI-57">
          <mxGeometry relative="1" as="geometry" />
        </mxCell>
        <mxCell id="KGgtrtZ2W4Gr-rw0HMmI-18" value="Pull Friend&#39;s History" style="shape=process;whiteSpace=wrap;html=1;backgroundOutline=1;" vertex="1" parent="WIyWlLk6GJQsqaUBKTNV-1">
          <mxGeometry x="660" y="370" width="120" height="60" as="geometry" />
        </mxCell>
        <mxCell id="KGgtrtZ2W4Gr-rw0HMmI-24" value="&lt;div&gt;Search Amazon&lt;/div&gt;" style="rounded=0;whiteSpace=wrap;html=1;" vertex="1" parent="WIyWlLk6GJQsqaUBKTNV-1">
          <mxGeometry x="1280" y="370" width="120" height="60" as="geometry" />
        </mxCell>
        <mxCell id="KGgtrtZ2W4Gr-rw0HMmI-25" value="Search Bestbuy" style="rounded=0;whiteSpace=wrap;html=1;" vertex="1" parent="WIyWlLk6GJQsqaUBKTNV-1">
          <mxGeometry x="1280" y="470" width="120" height="60" as="geometry" />
        </mxCell>
        <mxCell id="KGgtrtZ2W4Gr-rw0HMmI-26" value="Search Humble Bundle" style="rounded=0;whiteSpace=wrap;html=1;" vertex="1" parent="WIyWlLk6GJQsqaUBKTNV-1">
          <mxGeometry x="1280" y="570" width="120" height="60" as="geometry" />
        </mxCell>
        <mxCell id="KGgtrtZ2W4Gr-rw0HMmI-27" value="Search Steam" style="rounded=0;whiteSpace=wrap;html=1;" vertex="1" parent="WIyWlLk6GJQsqaUBKTNV-1">
          <mxGeometry x="1280" y="670" width="120" height="60" as="geometry" />
        </mxCell>
        <mxCell id="KGgtrtZ2W4Gr-rw0HMmI-35" style="edgeStyle=orthogonalEdgeStyle;rounded=0;orthogonalLoop=1;jettySize=auto;html=1;entryX=0.5;entryY=0;entryDx=0;entryDy=0;" edge="1" parent="WIyWlLk6GJQsqaUBKTNV-1" source="KGgtrtZ2W4Gr-rw0HMmI-30" target="KGgtrtZ2W4Gr-rw0HMmI-34">
          <mxGeometry relative="1" as="geometry">
            <Array as="points">
              <mxPoint x="1700" y="642" />
              <mxPoint x="1640" y="642" />
            </Array>
          </mxGeometry>
        </mxCell>
        <mxCell id="KGgtrtZ2W4Gr-rw0HMmI-41" style="edgeStyle=orthogonalEdgeStyle;rounded=0;orthogonalLoop=1;jettySize=auto;html=1;entryX=0.5;entryY=0;entryDx=0;entryDy=0;" edge="1" parent="WIyWlLk6GJQsqaUBKTNV-1" source="KGgtrtZ2W4Gr-rw0HMmI-30" target="KGgtrtZ2W4Gr-rw0HMmI-40">
          <mxGeometry relative="1" as="geometry">
            <Array as="points">
              <mxPoint x="1750" y="642" />
              <mxPoint x="1820" y="642" />
            </Array>
          </mxGeometry>
        </mxCell>
        <mxCell id="KGgtrtZ2W4Gr-rw0HMmI-30" value="&lt;div&gt;Get API Information: Genre and CIB Price. &lt;br&gt;&lt;/div&gt;&lt;div&gt;(This process should be allowed to fail)&lt;br&gt;&lt;/div&gt;" style="rounded=0;whiteSpace=wrap;html=1;" vertex="1" parent="WIyWlLk6GJQsqaUBKTNV-1">
          <mxGeometry x="1640" y="501" width="170" height="103" as="geometry" />
        </mxCell>
        <mxCell id="KGgtrtZ2W4Gr-rw0HMmI-39" style="edgeStyle=orthogonalEdgeStyle;rounded=0;orthogonalLoop=1;jettySize=auto;html=1;entryX=0.5;entryY=0;entryDx=0;entryDy=0;" edge="1" parent="WIyWlLk6GJQsqaUBKTNV-1" source="KGgtrtZ2W4Gr-rw0HMmI-34" target="KGgtrtZ2W4Gr-rw0HMmI-38">
          <mxGeometry relative="1" as="geometry" />
        </mxCell>
        <mxCell id="KGgtrtZ2W4Gr-rw0HMmI-34" value="Get from Humble Bundle" style="rounded=0;whiteSpace=wrap;html=1;" vertex="1" parent="WIyWlLk6GJQsqaUBKTNV-1">
          <mxGeometry x="1580" y="680" width="120" height="60" as="geometry" />
        </mxCell>
        <mxCell id="KGgtrtZ2W4Gr-rw0HMmI-36" value="EX: Genre: On Fail" style="text;html=1;strokeColor=none;fillColor=none;align=center;verticalAlign=middle;whiteSpace=wrap;rounded=0;" vertex="1" parent="WIyWlLk6GJQsqaUBKTNV-1">
          <mxGeometry x="1560" y="640" width="60" height="30" as="geometry" />
        </mxCell>
        <mxCell id="KGgtrtZ2W4Gr-rw0HMmI-37" value="EX: Genre: On Fail" style="text;html=1;strokeColor=none;fillColor=none;align=center;verticalAlign=middle;whiteSpace=wrap;rounded=0;" vertex="1" parent="WIyWlLk6GJQsqaUBKTNV-1">
          <mxGeometry x="1560" y="760" width="60" height="30" as="geometry" />
        </mxCell>
        <mxCell id="KGgtrtZ2W4Gr-rw0HMmI-38" value="Get from Steam" style="rounded=0;whiteSpace=wrap;html=1;" vertex="1" parent="WIyWlLk6GJQsqaUBKTNV-1">
          <mxGeometry x="1580" y="810" width="120" height="60" as="geometry" />
        </mxCell>
        <mxCell id="KGgtrtZ2W4Gr-rw0HMmI-40" value="Get from: https://steamdb.info/sales/" style="rounded=0;whiteSpace=wrap;html=1;" vertex="1" parent="WIyWlLk6GJQsqaUBKTNV-1">
          <mxGeometry x="1760" y="680" width="120" height="60" as="geometry" />
        </mxCell>
        <mxCell id="KGgtrtZ2W4Gr-rw0HMmI-42" value="EX: Sale Price: On Fail" style="text;html=1;strokeColor=none;fillColor=none;align=center;verticalAlign=middle;whiteSpace=wrap;rounded=0;" vertex="1" parent="WIyWlLk6GJQsqaUBKTNV-1">
          <mxGeometry x="1840" y="640" width="60" height="30" as="geometry" />
        </mxCell>
        <mxCell id="KGgtrtZ2W4Gr-rw0HMmI-50" style="edgeStyle=orthogonalEdgeStyle;rounded=0;orthogonalLoop=1;jettySize=auto;html=1;entryX=0;entryY=0.5;entryDx=0;entryDy=0;" edge="1" parent="WIyWlLk6GJQsqaUBKTNV-1" source="KGgtrtZ2W4Gr-rw0HMmI-49" target="KGgtrtZ2W4Gr-rw0HMmI-51">
          <mxGeometry relative="1" as="geometry">
            <mxPoint x="2200" y="740" as="targetPoint" />
            <Array as="points" />
          </mxGeometry>
        </mxCell>
        <mxCell id="KGgtrtZ2W4Gr-rw0HMmI-49" value="DB" style="shape=cylinder3;whiteSpace=wrap;html=1;boundedLbl=1;backgroundOutline=1;size=15;" vertex="1" parent="WIyWlLk6GJQsqaUBKTNV-1">
          <mxGeometry x="2040" y="625" width="60" height="80" as="geometry" />
        </mxCell>
        <mxCell id="KGgtrtZ2W4Gr-rw0HMmI-53" style="edgeStyle=orthogonalEdgeStyle;rounded=0;orthogonalLoop=1;jettySize=auto;html=1;" edge="1" parent="WIyWlLk6GJQsqaUBKTNV-1" source="KGgtrtZ2W4Gr-rw0HMmI-51">
          <mxGeometry relative="1" as="geometry">
            <mxPoint x="610" y="80" as="targetPoint" />
            <Array as="points">
              <mxPoint x="2370" y="-180" />
              <mxPoint x="610" y="-180" />
            </Array>
          </mxGeometry>
        </mxCell>
        <mxCell id="KGgtrtZ2W4Gr-rw0HMmI-65" style="edgeStyle=orthogonalEdgeStyle;rounded=0;orthogonalLoop=1;jettySize=auto;html=1;entryX=0.5;entryY=0;entryDx=0;entryDy=0;" edge="1" parent="WIyWlLk6GJQsqaUBKTNV-1" source="KGgtrtZ2W4Gr-rw0HMmI-51" target="KGgtrtZ2W4Gr-rw0HMmI-67">
          <mxGeometry relative="1" as="geometry">
            <mxPoint x="2370" y="850" as="targetPoint" />
          </mxGeometry>
        </mxCell>
        <mxCell id="KGgtrtZ2W4Gr-rw0HMmI-51" value="Generate PDF and Email it" style="rounded=0;whiteSpace=wrap;html=1;" vertex="1" parent="WIyWlLk6GJQsqaUBKTNV-1">
          <mxGeometry x="2310" y="695" width="120" height="60" as="geometry" />
        </mxCell>
        <mxCell id="KGgtrtZ2W4Gr-rw0HMmI-52" value="&lt;div&gt;Store:&lt;/div&gt;&lt;div&gt;Game Name&lt;/div&gt;&lt;div&gt;Who Wanted it (ClientID)&lt;br&gt;&lt;/div&gt;&lt;div&gt;CIB Price&lt;/div&gt;&lt;div&gt;Genre&lt;/div&gt;&lt;div&gt;Store&lt;/div&gt;&lt;div&gt;LINK&lt;br&gt;&lt;/div&gt;&lt;div&gt;&lt;br&gt;&lt;/div&gt;" style="text;html=1;align=center;verticalAlign=middle;resizable=0;points=[];autosize=1;strokeColor=none;fillColor=none;" vertex="1" parent="WIyWlLk6GJQsqaUBKTNV-1">
          <mxGeometry x="1995" y="510" width="150" height="120" as="geometry" />
        </mxCell>
        <mxCell id="KGgtrtZ2W4Gr-rw0HMmI-56" value="Terminate Program" style="ellipse;whiteSpace=wrap;html=1;" vertex="1" parent="WIyWlLk6GJQsqaUBKTNV-1">
          <mxGeometry x="354" y="685" width="120" height="80" as="geometry" />
        </mxCell>
        <mxCell id="KGgtrtZ2W4Gr-rw0HMmI-60" style="edgeStyle=orthogonalEdgeStyle;rounded=0;orthogonalLoop=1;jettySize=auto;html=1;" edge="1" parent="WIyWlLk6GJQsqaUBKTNV-1" source="KGgtrtZ2W4Gr-rw0HMmI-57">
          <mxGeometry relative="1" as="geometry">
            <mxPoint x="797" y="690" as="targetPoint" />
          </mxGeometry>
        </mxCell>
        <mxCell id="KGgtrtZ2W4Gr-rw0HMmI-57" value="DB" style="shape=cylinder3;whiteSpace=wrap;html=1;boundedLbl=1;backgroundOutline=1;size=15;" vertex="1" parent="WIyWlLk6GJQsqaUBKTNV-1">
          <mxGeometry x="767" y="540" width="60" height="80" as="geometry" />
        </mxCell>
        <mxCell id="KGgtrtZ2W4Gr-rw0HMmI-61" value="List" style="swimlane;fontStyle=0;childLayout=stackLayout;horizontal=1;startSize=30;horizontalStack=0;resizeParent=1;resizeParentMax=0;resizeLast=0;collapsible=1;marginBottom=0;" vertex="1" parent="WIyWlLk6GJQsqaUBKTNV-1">
          <mxGeometry x="727" y="695" width="140" height="60" as="geometry" />
        </mxCell>
        <mxCell id="KGgtrtZ2W4Gr-rw0HMmI-62" value="GameName" style="text;strokeColor=none;fillColor=none;align=left;verticalAlign=middle;spacingLeft=4;spacingRight=4;overflow=hidden;points=[[0,0.5],[1,0.5]];portConstraint=eastwest;rotatable=0;" vertex="1" parent="KGgtrtZ2W4Gr-rw0HMmI-61">
          <mxGeometry y="30" width="140" height="30" as="geometry" />
        </mxCell>
        <mxCell id="KGgtrtZ2W4Gr-rw0HMmI-67" value="&lt;div&gt;- Game Name&lt;/div&gt;&lt;div&gt;- Link to store&lt;/div&gt;&lt;div&gt;- Price Listed&lt;/div&gt;&lt;div&gt;- Custom Rating based on sale price and CIB price&lt;br&gt;&lt;/div&gt;&lt;div&gt;- 3 Suggestions from DB based on Genre&lt;br&gt;&lt;/div&gt;&lt;div&gt;&lt;br&gt;&lt;/div&gt;" style="shape=document;whiteSpace=wrap;html=1;boundedLbl=1;" vertex="1" parent="WIyWlLk6GJQsqaUBKTNV-1">
          <mxGeometry x="2260" y="890" width="160" height="200" as="geometry" />
        </mxCell>
        <mxCell id="KGgtrtZ2W4Gr-rw0HMmI-69" style="edgeStyle=orthogonalEdgeStyle;rounded=0;orthogonalLoop=1;jettySize=auto;html=1;entryX=0;entryY=0.5;entryDx=0;entryDy=0;" edge="1" parent="WIyWlLk6GJQsqaUBKTNV-1" source="KGgtrtZ2W4Gr-rw0HMmI-62" target="KGgtrtZ2W4Gr-rw0HMmI-28">
          <mxGeometry relative="1" as="geometry" />
        </mxCell>
        <mxCell id="KGgtrtZ2W4Gr-rw0HMmI-74" value="" style="edgeStyle=orthogonalEdgeStyle;rounded=0;orthogonalLoop=1;jettySize=auto;html=1;" edge="1" parent="WIyWlLk6GJQsqaUBKTNV-1" source="KGgtrtZ2W4Gr-rw0HMmI-71" target="KGgtrtZ2W4Gr-rw0HMmI-73">
          <mxGeometry relative="1" as="geometry" />
        </mxCell>
        <mxCell id="KGgtrtZ2W4Gr-rw0HMmI-71" value="DB" style="shape=cylinder3;whiteSpace=wrap;html=1;boundedLbl=1;backgroundOutline=1;size=15;" vertex="1" parent="WIyWlLk6GJQsqaUBKTNV-1">
          <mxGeometry x="1310" y="1020" width="60" height="80" as="geometry" />
        </mxCell>
        <mxCell id="KGgtrtZ2W4Gr-rw0HMmI-72" value="Update the Game&#39;s current prices in case of price drop or current sale" style="text;html=1;strokeColor=none;fillColor=none;align=center;verticalAlign=middle;whiteSpace=wrap;rounded=0;" vertex="1" parent="WIyWlLk6GJQsqaUBKTNV-1">
          <mxGeometry x="1350" y="920" width="60" height="30" as="geometry" />
        </mxCell>
        <mxCell id="KGgtrtZ2W4Gr-rw0HMmI-75" style="edgeStyle=orthogonalEdgeStyle;rounded=0;orthogonalLoop=1;jettySize=auto;html=1;" edge="1" parent="WIyWlLk6GJQsqaUBKTNV-1" source="KGgtrtZ2W4Gr-rw0HMmI-73">
          <mxGeometry relative="1" as="geometry">
            <mxPoint x="2370" y="470" as="targetPoint" />
            <Array as="points">
              <mxPoint x="2440" y="1100" />
              <mxPoint x="2440" y="590" />
              <mxPoint x="2370" y="590" />
            </Array>
          </mxGeometry>
        </mxCell>
        <mxCell id="KGgtrtZ2W4Gr-rw0HMmI-76" style="edgeStyle=orthogonalEdgeStyle;rounded=0;orthogonalLoop=1;jettySize=auto;html=1;" edge="1" parent="WIyWlLk6GJQsqaUBKTNV-1" source="KGgtrtZ2W4Gr-rw0HMmI-73">
          <mxGeometry relative="1" as="geometry">
            <mxPoint x="1555" y="1160" as="targetPoint" />
          </mxGeometry>
        </mxCell>
        <mxCell id="KGgtrtZ2W4Gr-rw0HMmI-73" value="Generate PDF List of the games no suggestions all in 1 as to avoid N num of emails sent to user." style="whiteSpace=wrap;html=1;" vertex="1" parent="WIyWlLk6GJQsqaUBKTNV-1">
          <mxGeometry x="1480" y="1015" width="150" height="90" as="geometry" />
        </mxCell>
        <mxCell id="KGgtrtZ2W4Gr-rw0HMmI-77" value="&lt;div&gt;List of N num Games:&lt;br&gt;&lt;/div&gt;&lt;div&gt;-Game Name&lt;/div&gt;&lt;div&gt;-Price&lt;/div&gt;&lt;div&gt;-Link to Store&lt;br&gt;&lt;/div&gt;" style="shape=document;whiteSpace=wrap;html=1;boundedLbl=1;" vertex="1" parent="WIyWlLk6GJQsqaUBKTNV-1">
          <mxGeometry x="1495" y="1160" width="120" height="120" as="geometry" />
        </mxCell>
        <mxCell id="KGgtrtZ2W4Gr-rw0HMmI-79" style="edgeStyle=orthogonalEdgeStyle;rounded=0;orthogonalLoop=1;jettySize=auto;html=1;entryX=0.5;entryY=0;entryDx=0;entryDy=0;" edge="1" parent="WIyWlLk6GJQsqaUBKTNV-1" source="KGgtrtZ2W4Gr-rw0HMmI-78" target="KGgtrtZ2W4Gr-rw0HMmI-28">
          <mxGeometry relative="1" as="geometry">
            <mxPoint x="1350" y="293" as="targetPoint" />
          </mxGeometry>
        </mxCell>
        <mxCell id="KGgtrtZ2W4Gr-rw0HMmI-78" value="DB" style="shape=cylinder3;whiteSpace=wrap;html=1;boundedLbl=1;backgroundOutline=1;size=15;" vertex="1" parent="WIyWlLk6GJQsqaUBKTNV-1">
          <mxGeometry x="1110" y="253" width="60" height="80" as="geometry" />
        </mxCell>
        <mxCell id="KGgtrtZ2W4Gr-rw0HMmI-80" value="Store Game Name to avoid variable swapping around " style="text;html=1;strokeColor=none;fillColor=none;align=center;verticalAlign=middle;whiteSpace=wrap;rounded=0;" vertex="1" parent="WIyWlLk6GJQsqaUBKTNV-1">
          <mxGeometry x="1110" y="170" width="60" height="30" as="geometry" />
        </mxCell>
        <mxCell id="KGgtrtZ2W4Gr-rw0HMmI-84" value="&lt;div style=&quot;font-size: 14px&quot;&gt;&lt;font style=&quot;font-size: 14px&quot; color=&quot;#080707&quot;&gt;Get Transaction Data&lt;/font&gt;&lt;/div&gt;" style="text;html=1;strokeColor=#005700;fillColor=#008a00;align=center;verticalAlign=middle;whiteSpace=wrap;rounded=0;fontColor=#ffffff;" vertex="1" parent="WIyWlLk6GJQsqaUBKTNV-1">
          <mxGeometry x="415" y="10" width="90" height="60" as="geometry" />
        </mxCell>
        <mxCell id="KGgtrtZ2W4Gr-rw0HMmI-89" value="&lt;font style=&quot;font-size: 14px&quot;&gt;&lt;b&gt;&lt;font style=&quot;font-size: 14px&quot; color=&quot;#0C000F&quot;&gt;Process Transaction Data&lt;/font&gt;&lt;/b&gt;&lt;/font&gt;" style="text;html=1;strokeColor=#006EAF;fillColor=#1ba1e2;align=center;verticalAlign=middle;whiteSpace=wrap;rounded=0;fontColor=#ffffff;" vertex="1" parent="WIyWlLk6GJQsqaUBKTNV-1">
          <mxGeometry x="1525" y="253" width="115" height="67" as="geometry" />
        </mxCell>
      </root>
    </mxGraphModel>
  </diagram>
</mxfile>
